<svg xmlns="http://www.w3.org/2000/svg" viewBox="0 0 24 24"><path fill="#635BFF" d="M13.976 9.15c-2.172-.806-3.356-1.426-3.356-2.409 0-.831.682-1.305 1.901-1.305 2.227 0 4.515.613 6.09 1.042l.89-5.408C18.26.613 15.716.081 13.351.081 8.387.081 5.026 2.186 5.026 6.515c0 3.58 2.808 5.48 5.84 6.611 2.444.924 3.26 1.578 3.26 2.6 0 .972-.816 1.578-2.172 1.578-1.901 0-4.515-.924-6.416-1.841l-.89 5.445c2.227.972 5.035 1.578 7.533 1.578 5.169 0 8.529-2.049 8.529-6.47 0-3.58-2.757-5.408-5.734-6.47z"/></svg>